<svg xmlns="http://www.w3.org/2000/svg" viewBox="0 0 5 5" fill="none" shape-rendering="crispEdges"><metadata xmlns:rdf="http://www.w3.org/1999/02/22-rdf-syntax-ns#" xmlns:xsi="http://www.w3.org/2001/XMLSchema-instance" xmlns:dc="http://purl.org/dc/elements/1.1/" xmlns:dcterms="http://purl.org/dc/terms/"><rdf:RDF><rdf:Description><dc:title>Identicon</dc:title><dc:creator>DiceBear</dc:creator><dc:source xsi:type="dcterms:URI">https://www.dicebear.com</dc:source><dcterms:license xsi:type="dcterms:URI">https://creativecommons.org/publicdomain/zero/1.0/</dcterms:license><dc:rights>„Identicon” (https://www.dicebear.com) by „DiceBear”, licensed under „CC0 1.0” (https://creativecommons.org/publicdomain/zero/1.0/)</dc:rights></rdf:Description></rdf:RDF></metadata><mask id="viewboxMask"><rect width="5" height="5" rx="0" ry="0" x="0" y="0" fill="#fff" /></mask><g mask="url(#viewboxMask)"><rect fill="#ffffff" width="5" height="5" x="0" y="0" /><path d="M2 0H1v1h1V0ZM4 0H3v1h1V0Z" fill="#039be5"/><path d="M0 1h1v1H0V1ZM4 1h1v1H4V1ZM3 1H2v1h1V1Z" fill="#039be5"/><path d="M2 2H0v1h2V2ZM5 2H3v1h2V2Z" fill="#039be5"/><path d="M1 3H0v1h1V3ZM5 3H4v1h1V3Z" fill="#039be5"/><path d="M0 4h1v1H0V4ZM4 4h1v1H4V4ZM3 4H2v1h1V4Z" fill="#039be5"/></g></svg>