<svg xmlns="http://www.w3.org/2000/svg" viewBox="0 0 5 5" fill="none" shape-rendering="crispEdges"><metadata xmlns:rdf="http://www.w3.org/1999/02/22-rdf-syntax-ns#" xmlns:xsi="http://www.w3.org/2001/XMLSchema-instance" xmlns:dc="http://purl.org/dc/elements/1.1/" xmlns:dcterms="http://purl.org/dc/terms/"><rdf:RDF><rdf:Description><dc:title>Identicon</dc:title><dc:creator>DiceBear</dc:creator><dc:source xsi:type="dcterms:URI">https://www.dicebear.com</dc:source><dcterms:license xsi:type="dcterms:URI">https://creativecommons.org/publicdomain/zero/1.0/</dcterms:license><dc:rights>„Identicon” (https://www.dicebear.com) by „DiceBear”, licensed under „CC0 1.0” (https://creativecommons.org/publicdomain/zero/1.0/)</dc:rights></rdf:Description></rdf:RDF></metadata><mask id="viewboxMask"><rect width="5" height="5" rx="0" ry="0" x="0" y="0" fill="#fff" /></mask><g mask="url(#viewboxMask)"><rect fill="#ffffff" width="5" height="5" x="0" y="0" /><path d="M2 0H0v1h2V0ZM5 0H3v1h2V0Z" fill="#6d4c41"/><path d="M2 1H1v1h1V1ZM4 1H3v1h1V1Z" fill="#6d4c41"/><path d="M0 2h1v1H0V2ZM4 2h1v1H4V2ZM3 2H2v1h1V2Z" fill="#6d4c41"/><path d="M1 3H0v1h1V3ZM5 3H4v1h1V3Z" fill="#6d4c41"/><path fill="#6d4c41" d="M2 4h1v1H2z"/></g></svg>